<?xml version="1.0" encoding="iso-8859-1"?>
<!-- Generator: Adobe Illustrator 19.0.0, SVG Export Plug-In . SVG Version: 6.00 Build 0)  -->
<svg version="1.1" id="Layer_1" xmlns="http://www.w3.org/2000/svg" xmlns:xlink="http://www.w3.org/1999/xlink" x="0px" y="0px"
	 viewBox="0 0 487.5 487.5" style="enable-background:new 0 0 487.5 487.5;" xml:space="preserve">
<g transform="translate(0 -540.36)">
	<g>
		<g>
			<path d="M120.21,896.387c-5.501,0-10.001,4.499-10.001,9.998v111.477c0,5.499,4.501,9.998,10.001,9.998
				s10.001-4.499,10.001-9.998V906.385C130.211,900.886,125.711,896.387,120.21,896.387z"/>
			<path d="M182.019,835.399c-5.501,0-10.001,4.499-10.001,9.998v172.465c0,5.499,4.501,9.998,10.001,9.998
				c5.501,0,10.001-4.499,10.001-9.998V845.397C192.02,839.898,187.52,835.399,182.019,835.399z"/>
			<path d="M243.728,774.312c-5.501,0-10.001,4.499-10.001,9.998v233.552c0,5.499,4.501,9.998,10.001,9.998
				s10.001-4.499,10.001-9.998V784.31C253.729,778.811,249.228,774.312,243.728,774.312z"/>
			<path d="M305.536,713.224c-5.501,0-10.001,4.499-10.001,9.998v294.64c0,5.499,4.501,9.998,10.001,9.998
				s10.001-4.499,10.001-9.998v-294.64C315.538,717.723,311.037,713.224,305.536,713.224z"/>
			<path d="M367.245,652.137c-5.501,0-10.001,4.499-10.001,9.998v355.727c0,5.499,4.501,9.998,10.001,9.998
				s10.001-4.499,10.001-9.998V662.135C377.247,656.636,372.746,652.137,367.245,652.137z"/>
			<path d="M438.955,548.958L438.955,548.958c0-0.1,0-0.2,0-0.3c0-0.2-0.1-0.4-0.1-0.6c0-0.1-0.1-0.3-0.1-0.4c0-0.2-0.1-0.4-0.1-0.5
				c0-0.2-0.1-0.3-0.2-0.4c-0.1-0.2-0.1-0.3-0.2-0.5c-0.1-0.2-0.1-0.3-0.2-0.5c-0.1-0.1-0.1-0.3-0.2-0.4c-0.1-0.2-0.2-0.3-0.3-0.5
				c-0.1-0.1-0.1-0.2-0.2-0.3c-0.4-0.5-0.8-1.1-1.3-1.5c-0.1-0.1-0.3-0.2-0.4-0.3c-0.1-0.1-0.2-0.2-0.3-0.3
				c-0.1-0.1-0.3-0.2-0.5-0.3c-0.1-0.1-0.2-0.2-0.3-0.2c-0.2-0.1-0.3-0.2-0.5-0.3c-0.1-0.1-0.2-0.2-0.4-0.2
				c-0.1-0.1-0.3-0.1-0.4-0.2c-0.2-0.1-0.3-0.1-0.5-0.2c-0.1-0.1-0.3-0.1-0.4-0.1c-0.2-0.1-0.4-0.1-0.5-0.2c-0.1,0-0.2-0.1-0.4-0.1
				s-0.4-0.1-0.6-0.1c-0.1,0-0.3,0-0.4-0.1c-0.2,0-0.3-0.1-0.5-0.1c-0.3,0-0.7,0-1,0h-61.009c-5.501,0-10.001,4.499-10.001,9.998
				s4.501,9.998,10.001,9.998h33.105L68.503,834.1v-39.092c0-5.499-4.501-9.998-10.001-9.998S48.5,789.509,48.5,795.008v60.288
				c0,0.3,0,0.7,0.1,1c0,0.1,0,0.2,0,0.3c0,0.2,0.1,0.4,0.1,0.6c0,0.1,0.1,0.3,0.1,0.4c0,0.2,0.1,0.4,0.1,0.5c0,0.2,0.1,0.3,0.2,0.4
				c0.1,0.2,0.1,0.3,0.2,0.5c0.1,0.2,0.1,0.3,0.2,0.5c0.1,0.1,0.1,0.3,0.2,0.4c0.1,0.2,0.2,0.3,0.3,0.5c0.1,0.1,0.1,0.2,0.2,0.3
				c0.4,0.6,0.8,1.1,1.3,1.6c0.1,0.1,0.2,0.2,0.3,0.3c0.2,0.1,0.3,0.3,0.5,0.4c0.1,0.1,0.3,0.2,0.4,0.3c0.2,0.1,0.3,0.2,0.5,0.3
				c0.1,0.1,0.3,0.2,0.4,0.2c0.2,0.1,0.3,0.2,0.5,0.3c0.1,0.1,0.3,0.1,0.4,0.2c0.2,0.1,0.4,0.2,0.6,0.2c0.1,0,0.2,0.1,0.3,0.1
				c0.2,0.1,0.5,0.1,0.7,0.2c0.1,0,0.2,0,0.3,0.1c0.3,0.1,0.6,0.1,0.8,0.1c0.1,0,0.1,0,0.2,0c0.3,0,0.7,0.1,1,0.1c0,0,0,0,0.1,0
				h61.709c5.501,0,10.001-4.499,10.001-9.998s-4.501-9.998-10.001-9.998H86.305l332.647-274.144v39.892
				c0,5.499,4.501,9.998,10.001,9.998s10.001-4.499,10.001-9.998v-61.087C439.055,549.658,438.955,549.258,438.955,548.958z"/>
		</g>
	</g>
</g>
<g>
</g>
<g>
</g>
<g>
</g>
<g>
</g>
<g>
</g>
<g>
</g>
<g>
</g>
<g>
</g>
<g>
</g>
<g>
</g>
<g>
</g>
<g>
</g>
<g>
</g>
<g>
</g>
<g>
</g>
</svg>
